{
    "asset" : {
        "generator" : "Khronos glTF Blender I/O v3.3.27",
        "version" : "2.0"
    },
    "scene" : 0,
    "scenes" : [
        {
            "name" : "Scene",
            "nodes" : [
                1
            ]
        }
    ],
    "nodes" : [
        {
            "mesh" : 0,
            "name" : "Handle",
            "translation" : [
                -0.07780301570892334,
                0.20884239673614502,
                -0.0005226414650678635
            ]
        },
        {
            "children" : [
                0
            ],
            "mesh" : 1,
            "name" : "Jug"
        }
    ],
    "materials" : [
        {
            "doubleSided" : true,
            "name" : "JugGreen",
            "pbrMetallicRoughness" : {
                "baseColorFactor" : [
                    0.022112753242254257,
                    0.48379412293434143,
                    0.015037127770483494,
                    1
                ],
                "metallicFactor" : 0,
                "roughnessFactor" : 0.06363636255264282
            }
        }
    ],
    "meshes" : [
        {
            "name" : "Torus.001",
            "primitives" : [
                {
                    "attributes" : {
                        "POSITION" : 0,
                        "NORMAL" : 1,
                        "TEXCOORD_0" : 2
                    },
                    "indices" : 3,
                    "material" : 0
                }
            ]
        },
        {
            "name" : "Cylinder.002",
            "primitives" : [
                {
                    "attributes" : {
                        "POSITION" : 4,
                        "NORMAL" : 5,
                        "TEXCOORD_0" : 6
                    },
                    "indices" : 7,
                    "material" : 0
                }
            ]
        }
    ],
    "accessors" : [
        {
            "bufferView" : 0,
            "componentType" : 5126,
            "count" : 2304,
            "max" : [
                0.05000000819563866,
                0.05000000819563866,
                0.01000000350177288
            ],
            "min" : [
                -0.05000000819563866,
                -0.05000000819563866,
                -0.01000000350177288
            ],
            "type" : "VEC3"
        },
        {
            "bufferView" : 1,
            "componentType" : 5126,
            "count" : 2304,
            "type" : "VEC3"
        },
        {
            "bufferView" : 2,
            "componentType" : 5126,
            "count" : 2304,
            "type" : "VEC2"
        },
        {
            "bufferView" : 3,
            "componentType" : 5123,
            "count" : 3456,
            "type" : "SCALAR"
        },
        {
            "bufferView" : 4,
            "componentType" : 5126,
            "count" : 430,
            "max" : [
                0.10999999195337296,
                0.30000001192092896,
                0.07999999821186066
            ],
            "min" : [
                -0.07999999821186066,
                0.0005252361297607422,
                -0.07999999821186066
            ],
            "type" : "VEC3"
        },
        {
            "bufferView" : 5,
            "componentType" : 5126,
            "count" : 430,
            "type" : "VEC3"
        },
        {
            "bufferView" : 6,
            "componentType" : 5126,
            "count" : 430,
            "type" : "VEC2"
        },
        {
            "bufferView" : 7,
            "componentType" : 5123,
            "count" : 756,
            "type" : "SCALAR"
        }
    ],
    "bufferViews" : [
        {
            "buffer" : 0,
            "byteLength" : 27648,
            "byteOffset" : 0,
            "target" : 34962
        },
        {
            "buffer" : 0,
            "byteLength" : 27648,
            "byteOffset" : 27648,
            "target" : 34962
        },
        {
            "buffer" : 0,
            "byteLength" : 18432,
            "byteOffset" : 55296,
            "target" : 34962
        },
        {
            "buffer" : 0,
            "byteLength" : 6912,
            "byteOffset" : 73728,
            "target" : 34963
        },
        {
            "buffer" : 0,
            "byteLength" : 5160,
            "byteOffset" : 80640,
            "target" : 34962
        },
        {
            "buffer" : 0,
            "byteLength" : 5160,
            "byteOffset" : 85800,
            "target" : 34962
        },
        {
            "buffer" : 0,
            "byteLength" : 3440,
            "byteOffset" : 90960,
            "target" : 34962
        },
        {
            "buffer" : 0,
            "byteLength" : 1512,
            "byteOffset" : 94400,
            "target" : 34963
        }
    ],
    "buffers" : [
        {
            "byteLength" : 95912,
            "uri" : "data:application/octet-stream;base64,"
        }
    ]
}
