{
    "asset" : {
        "generator" : "Khronos glTF Blender I/O v3.3.27",
        "version" : "2.0"
    },
    "scene" : 0,
    "scenes" : [
        {
            "name" : "Scene",
            "nodes" : [
                0,
                1,
                2,
                3,
                4
            ]
        }
    ],
    "nodes" : [
        {
            "mesh" : 0,
            "name" : "Body",
            "rotation" : [
                0.7071068286895752,
                0,
                0,
                0.7071068286895752
            ]
        },
        {
            "mesh" : 1,
            "name" : "WheelFL",
            "rotation" : [
                0.7071068286895752,
                0,
                0,
                0.7071068286895752
            ],
            "scale" : [
                0.20984429121017456,
                0.09442474693059921,
                0.20984429121017456
            ],
            "translation" : [
                -1.0815672874450684,
                0.13895298540592194,
                -0.0773094967007637
            ]
        },
        {
            "mesh" : 1,
            "name" : "WheelBL",
            "rotation" : [
                0.7071068286895752,
                0,
                0,
                0.7071068286895752
            ],
            "scale" : [
                0.20984429121017456,
                0.09442474693059921,
                0.20984429121017456
            ],
            "translation" : [
                0.7051693201065063,
                0.13895298540592194,
                -0.0773094967007637
            ]
        },
        {
            "mesh" : 1,
            "name" : "WheelFR",
            "rotation" : [
                0.7071068286895752,
                0,
                0,
                0.7071068286895752
            ],
            "scale" : [
                0.20984429121017456,
                0.09442474693059921,
                0.20984429121017456
            ],
            "translation" : [
                -1.0815672874450684,
                0.13895298540592194,
                -1.2294244766235352
            ]
        },
        {
            "mesh" : 1,
            "name" : "WheelBR",
            "rotation" : [
                0.7071068286895752,
                0,
                0,
                0.7071068286895752
            ],
            "scale" : [
                0.20984429121017456,
                0.09442474693059921,
                0.20984429121017456
            ],
            "translation" : [
                0.7051693201065063,
                0.13895298540592194,
                -1.2294244766235352
            ]
        }
    ],
    "materials" : [
        {
            "doubleSided" : true,
            "name" : "BodyMaterial",
            "pbrMetallicRoughness" : {
                "baseColorFactor" : [
                    0.20264072716236115,
                    0.02359011210501194,
                    0.021169256418943405,
                    1
                ],
                "metallicFactor" : 0,
                "roughnessFactor" : 0.5
            }
        },
        {
            "doubleSided" : true,
            "name" : "WindowMaterial",
            "pbrMetallicRoughness" : {
                "baseColorFactor" : [
                    0.4403507113456726,
                    0.8272377252578735,
                    0.8147808909416199,
                    1
                ],
                "metallicFactor" : 0,
                "roughnessFactor" : 0.05000000074505806
            }
        },
        {
            "doubleSided" : true,
            "name" : "WheelMaterial",
            "pbrMetallicRoughness" : {
                "baseColorFactor" : [
                    0.009560330770909786,
                    0.009560330770909786,
                    0.009560330770909786,
                    1
                ],
                "metallicFactor" : 0,
                "roughnessFactor" : 0.9227272868156433
            }
        }
    ],
    "meshes" : [
        {
            "name" : "Plane",
            "primitives" : [
                {
                    "attributes" : {
                        "POSITION" : 0,
                        "NORMAL" : 1,
                        "TEXCOORD_0" : 2
                    },
                    "indices" : 3,
                    "material" : 0
                },
                {
                    "attributes" : {
                        "POSITION" : 4,
                        "NORMAL" : 5,
                        "TEXCOORD_0" : 6
                    },
                    "indices" : 7,
                    "material" : 1
                }
            ]
        },
        {
            "name" : "Cylinder",
            "primitives" : [
                {
                    "attributes" : {
                        "POSITION" : 8,
                        "NORMAL" : 9,
                        "TEXCOORD_0" : 10
                    },
                    "indices" : 11,
                    "material" : 2
                }
            ]
        }
    ],
    "accessors" : [
        {
            "bufferView" : 0,
            "componentType" : 5126,
            "count" : 576,
            "max" : [
                1.4596706628799438,
                1.1286783774266951e-07,
                -0.07944032549858093
            ],
            "min" : [
                -1.6545542478561401,
                -1.2999999523162842,
                -0.9777752161026001
            ],
            "type" : "VEC3"
        },
        {
            "bufferView" : 1,
            "componentType" : 5126,
            "count" : 576,
            "type" : "VEC3"
        },
        {
            "bufferView" : 2,
            "componentType" : 5126,
            "count" : 576,
            "type" : "VEC2"
        },
        {
            "bufferView" : 3,
            "componentType" : 5123,
            "count" : 864,
            "type" : "SCALAR"
        },
        {
            "bufferView" : 4,
            "componentType" : 5126,
            "count" : 32,
            "max" : [
                1.4276822805404663,
                -0.03460902348160744,
                -0.34411734342575073
            ],
            "min" : [
                -1.6256999969482422,
                -1.2622846364974976,
                -0.9290133714675903
            ],
            "type" : "VEC3"
        },
        {
            "bufferView" : 5,
            "componentType" : 5126,
            "count" : 32,
            "type" : "VEC3"
        },
        {
            "bufferView" : 6,
            "componentType" : 5126,
            "count" : 32,
            "type" : "VEC2"
        },
        {
            "bufferView" : 7,
            "componentType" : 5123,
            "count" : 48,
            "type" : "SCALAR"
        },
        {
            "bufferView" : 8,
            "componentType" : 5126,
            "count" : 192,
            "max" : [
                1,
                1,
                1
            ],
            "min" : [
                -1,
                -1,
                -1
            ],
            "type" : "VEC3"
        },
        {
            "bufferView" : 9,
            "componentType" : 5126,
            "count" : 192,
            "type" : "VEC3"
        },
        {
            "bufferView" : 10,
            "componentType" : 5126,
            "count" : 192,
            "type" : "VEC2"
        },
        {
            "bufferView" : 11,
            "componentType" : 5123,
            "count" : 372,
            "type" : "SCALAR"
        }
    ],
    "bufferViews" : [
        {
            "buffer" : 0,
            "byteLength" : 6912,
            "byteOffset" : 0,
            "target" : 34962
        },
        {
            "buffer" : 0,
            "byteLength" : 6912,
            "byteOffset" : 6912,
            "target" : 34962
        },
        {
            "buffer" : 0,
            "byteLength" : 4608,
            "byteOffset" : 13824,
            "target" : 34962
        },
        {
            "buffer" : 0,
            "byteLength" : 1728,
            "byteOffset" : 18432,
            "target" : 34963
        },
        {
            "buffer" : 0,
            "byteLength" : 384,
            "byteOffset" : 20160,
            "target" : 34962
        },
        {
            "buffer" : 0,
            "byteLength" : 384,
            "byteOffset" : 20544,
            "target" : 34962
        },
        {
            "buffer" : 0,
            "byteLength" : 256,
            "byteOffset" : 20928,
            "target" : 34962
        },
        {
            "buffer" : 0,
            "byteLength" : 96,
            "byteOffset" : 21184,
            "target" : 34963
        },
        {
            "buffer" : 0,
            "byteLength" : 2304,
            "byteOffset" : 21280,
            "target" : 34962
        },
        {
            "buffer" : 0,
            "byteLength" : 2304,
            "byteOffset" : 23584,
            "target" : 34962
        },
        {
            "buffer" : 0,
            "byteLength" : 1536,
            "byteOffset" : 25888,
            "target" : 34962
        },
        {
            "buffer" : 0,
            "byteLength" : 744,
            "byteOffset" : 27424,
            "target" : 34963
        }
    ],
    "buffers" : [
        {
            "byteLength" : 28168,
            "uri" : "data:application/octet-stream;base64,"
        }
    ]
}
